<svg width="36" height="36" viewBox="0 0 36 36" fill="none" xmlns="http://www.w3.org/2000/svg">
<g id="famicons:warning-outline">
<path id="Vector" d="M6.01663 31.377H29.9833C30.3726 31.3769 30.7552 31.2758 31.0937 31.0837C31.4322 30.8915 31.7151 30.6148 31.9147 30.2806C32.1143 29.9464 32.2237 29.5661 32.2324 29.177C32.241 28.7878 32.1486 28.4031 31.964 28.0603L19.9814 5.80641C19.1313 4.22859 16.8687 4.22859 16.0186 5.80641L4.03592 28.0603C3.85139 28.4031 3.75893 28.7878 3.76758 29.177C3.77624 29.5661 3.8857 29.9464 4.08529 30.2806C4.28487 30.6148 4.56775 30.8915 4.90627 31.0837C5.24478 31.2758 5.62737 31.3769 6.01663 31.377Z" stroke="currentcolor" stroke-width="2" stroke-linecap="round" stroke-linejoin="round"/>
<path id="Vector_2" d="M17.5964 13.7384L18 22.3165L18.4029 13.7419C18.4054 13.6871 18.3967 13.6323 18.3773 13.581C18.3579 13.5296 18.3282 13.4828 18.2901 13.4433C18.252 13.4038 18.2063 13.3725 18.1557 13.3513C18.105 13.3301 18.0506 13.3195 17.9958 13.32C17.9419 13.3205 17.8886 13.3318 17.8391 13.3533C17.7897 13.3747 17.745 13.4059 17.7078 13.4449C17.6706 13.4839 17.6415 13.5299 17.6224 13.5803C17.6033 13.6308 17.5944 13.6845 17.5964 13.7384Z" stroke="currentcolor" stroke-width="2" stroke-linecap="round" stroke-linejoin="round"/>
<path id="Vector_3" d="M18 27.9316C17.7219 27.9316 17.45 27.8492 17.2187 27.6946C16.9875 27.5401 16.8072 27.3205 16.7008 27.0635C16.5944 26.8066 16.5665 26.5238 16.6208 26.251C16.675 25.9783 16.809 25.7277 17.0056 25.531C17.2023 25.3344 17.4529 25.2004 17.7257 25.1462C17.9984 25.0919 18.2812 25.1197 18.5381 25.2262C18.7951 25.3326 19.0147 25.5129 19.1693 25.7441C19.3238 25.9754 19.4063 26.2473 19.4063 26.5254C19.4063 26.8984 19.2581 27.256 18.9944 27.5198C18.7306 27.7835 18.373 27.9316 18 27.9316Z" fill="currentcolor"/>
</g>
</svg>
