<svg width="180" height="62" viewBox="0 0 180 62" fill="none" xmlns="http://www.w3.org/2000/svg">
<path d="M22.8 44.088C22.352 44.088 21.856 44.008 21.312 43.848C19.68 43.464 18.56 42.472 17.952 40.872C17.44 39.656 17.456 38.28 18 36.744C18.192 36.2 18.48 35.56 18.864 34.824C18.928 34.696 18.992 34.552 19.056 34.392C19.152 34.232 19.248 34.088 19.344 33.96C18.64 34.344 17.92 34.76 17.184 35.208C16.48 35.624 15.76 36.024 15.024 36.408C13.744 37.208 12.496 37.944 11.28 38.616C10.064 39.256 8.944 39.8 7.92 40.248C6.736 40.792 5.52 40.824 4.272 40.344C3.024 39.864 2.144 39.016 1.632 37.8C1.088 36.584 1.056 35.368 1.536 34.152C2.016 32.904 2.864 32.024 4.08 31.512C4.816 31.16 5.728 30.696 6.816 30.12C7.904 29.512 9.04 28.856 10.224 28.152C11.632 27.32 13.12 26.472 14.688 25.608C16.256 24.712 17.776 23.944 19.248 23.304C20.944 22.472 22.528 21.912 24 21.624C25.024 21.368 25.984 21.224 26.88 21.192C27.776 21.16 28.624 21.256 29.424 21.48C31.184 21.992 32.384 23.08 33.024 24.744C33.504 25.928 33.568 27.112 33.216 28.296C32.896 29.448 32.464 30.536 31.92 31.56C32.016 31.528 32.112 31.496 32.208 31.464C32.336 31.432 32.448 31.4 32.544 31.368C33.76 30.92 34.96 30.984 36.144 31.56C37.36 32.104 38.192 33 38.64 34.248C39.088 35.496 39.04 36.728 38.496 37.944C37.952 39.128 37.04 39.944 35.76 40.392C34.288 40.904 32.912 41.384 31.632 41.832C30.384 42.28 29.28 42.664 28.32 42.984C27.008 43.368 25.92 43.656 25.056 43.848C24.224 44.008 23.472 44.088 22.8 44.088Z" fill="#3A90C1"/>
<path d="M43.1936 47.4C42.6176 47.4 42.0096 47.32 41.3696 47.16C39.9296 46.808 38.9056 45.992 38.2976 44.712C37.8816 43.88 37.6896 43.128 37.7216 42.456C37.7856 41.752 37.8336 41.24 37.8656 40.92C37.8976 40.76 37.9296 40.6 37.9616 40.44C38.0256 40.248 38.0736 40.056 38.1056 39.864C37.8816 39.992 37.6736 40.104 37.4816 40.2C37.2896 40.264 37.0816 40.328 36.8576 40.392C36.3456 40.584 35.8016 40.68 35.2256 40.68C34.2336 40.68 33.3216 40.408 32.4896 39.864C31.6576 39.288 31.0656 38.504 30.7136 37.512C30.2976 36.296 30.3616 35.08 30.9056 33.864C31.4496 32.648 32.3456 31.816 33.5936 31.368C33.7216 31.336 34.0096 31.208 34.4576 30.984C34.9056 30.728 35.5776 30.264 36.4736 29.592C37.4016 28.92 38.6016 27.944 40.0736 26.664C41.3536 25.544 42.4416 24.568 43.3376 23.736C44.2336 22.872 44.6976 22.424 44.7296 22.392C45.3376 21.784 46.0416 21.368 46.8416 21.144C47.6736 20.92 48.5056 20.936 49.3376 21.192C50.7136 21.544 51.7056 22.344 52.3136 23.592C52.5056 23.912 52.6656 24.408 52.7936 25.08C52.9536 25.72 52.9056 26.456 52.6496 27.288C52.6496 27.32 52.6336 27.352 52.6016 27.384C52.5696 27.416 52.5536 27.464 52.5536 27.528C52.5216 27.592 52.4896 27.672 52.4576 27.768C52.4576 27.864 52.4416 27.944 52.4096 28.008C52.3456 28.232 52.2496 28.472 52.1216 28.728C52.0256 28.984 51.9136 29.288 51.7856 29.64C51.6576 29.96 51.5136 30.344 51.3536 30.792C51.2256 31.208 51.0656 31.64 50.8736 32.088C50.9376 32.056 51.0016 32.024 51.0656 31.992C51.1296 31.928 51.1936 31.88 51.2576 31.848C52.3776 31.112 53.5776 30.888 54.8576 31.176C56.1376 31.432 57.1296 32.12 57.8336 33.24C58.6016 34.328 58.8416 35.528 58.5536 36.84C58.2976 38.152 57.6096 39.176 56.4896 39.912C55.7216 40.424 54.9856 40.936 54.2816 41.448C53.6096 41.928 52.9216 42.44 52.2176 42.984C51.4176 43.592 50.6656 44.152 49.9616 44.664C49.2896 45.176 48.6016 45.624 47.8976 46.008C47.3856 46.296 46.9056 46.52 46.4576 46.68C46.0096 46.872 45.5616 47.032 45.1136 47.16C44.4096 47.32 43.7696 47.4 43.1936 47.4Z" fill="#137AB5"/>
<path d="M62.8567 47.4C62.2807 47.4 61.6727 47.32 61.0327 47.16C59.5927 46.808 58.5687 45.992 57.9607 44.712C57.5447 43.88 57.3527 43.128 57.3847 42.456C57.4487 41.752 57.4967 41.24 57.5287 40.92C57.5607 40.76 57.5927 40.6 57.6247 40.44C57.6887 40.248 57.7367 40.056 57.7687 39.864C57.5447 39.992 57.3367 40.104 57.1447 40.2C56.9527 40.264 56.7447 40.328 56.5207 40.392C56.0087 40.584 55.4647 40.68 54.8887 40.68C53.8967 40.68 52.9847 40.408 52.1527 39.864C51.3207 39.288 50.7287 38.504 50.3767 37.512C49.9607 36.296 50.0247 35.08 50.5687 33.864C51.1127 32.648 52.0087 31.816 53.2567 31.368C53.3847 31.336 53.6727 31.208 54.1207 30.984C54.5687 30.728 55.2407 30.264 56.1367 29.592C57.0647 28.92 58.2647 27.944 59.7367 26.664C61.0167 25.544 62.1047 24.568 63.0007 23.736C63.8967 22.872 64.3607 22.424 64.3927 22.392C65.0007 21.784 65.7047 21.368 66.5047 21.144C67.3367 20.92 68.1687 20.936 69.0007 21.192C70.3767 21.544 71.3687 22.344 71.9767 23.592C72.1687 23.912 72.3287 24.408 72.4567 25.08C72.6167 25.72 72.5687 26.456 72.3127 27.288C72.3127 27.32 72.2967 27.352 72.2647 27.384C72.2327 27.416 72.2167 27.464 72.2167 27.528C72.1847 27.592 72.1527 27.672 72.1207 27.768C72.1207 27.864 72.1047 27.944 72.0727 28.008C72.0087 28.232 71.9127 28.472 71.7847 28.728C71.6887 28.984 71.5767 29.288 71.4487 29.64C71.3207 29.96 71.1767 30.344 71.0167 30.792C70.8887 31.208 70.7287 31.64 70.5367 32.088C70.6007 32.056 70.6647 32.024 70.7287 31.992C70.7927 31.928 70.8567 31.88 70.9207 31.848C72.0407 31.112 73.2407 30.888 74.5207 31.176C75.8007 31.432 76.7927 32.12 77.4967 33.24C78.2647 34.328 78.5047 35.528 78.2167 36.84C77.9607 38.152 77.2727 39.176 76.1527 39.912C75.3847 40.424 74.6487 40.936 73.9447 41.448C73.2727 41.928 72.5847 42.44 71.8807 42.984C71.0807 43.592 70.3287 44.152 69.6247 44.664C68.9527 45.176 68.2647 45.624 67.5607 46.008C67.0487 46.296 66.5687 46.52 66.1207 46.68C65.6727 46.872 65.2247 47.032 64.7767 47.16C64.0727 47.32 63.4327 47.4 62.8567 47.4Z" fill="#0E5B88"/>
<path d="M110.856 20.848C110.632 20.624 110.216 20.32 109.608 19.936C109.032 19.552 108.312 19.184 107.448 18.832C106.616 18.48 105.704 18.176 104.712 17.92C103.72 17.632 102.712 17.488 101.688 17.488C99.896 17.488 98.536 17.824 97.608 18.496C96.712 19.168 96.264 20.112 96.264 21.328C96.264 22.256 96.552 22.992 97.128 23.536C97.704 24.08 98.568 24.544 99.72 24.928C100.872 25.312 102.312 25.728 104.04 26.176C106.28 26.72 108.216 27.392 109.848 28.192C111.512 28.96 112.776 29.984 113.64 31.264C114.536 32.512 114.984 34.176 114.984 36.256C114.984 38.08 114.648 39.648 113.976 40.96C113.304 42.24 112.376 43.28 111.192 44.08C110.008 44.88 108.664 45.472 107.16 45.856C105.656 46.208 104.056 46.384 102.36 46.384C100.664 46.384 98.968 46.208 97.272 45.856C95.576 45.504 93.944 45.008 92.376 44.368C90.808 43.696 89.368 42.896 88.056 41.968L90.984 36.256C91.272 36.544 91.784 36.928 92.52 37.408C93.256 37.856 94.152 38.32 95.208 38.8C96.264 39.248 97.416 39.632 98.664 39.952C99.912 40.272 101.176 40.432 102.456 40.432C104.248 40.432 105.608 40.128 106.536 39.52C107.464 38.912 107.928 38.048 107.928 36.928C107.928 35.904 107.56 35.104 106.824 34.528C106.088 33.952 105.064 33.456 103.752 33.04C102.44 32.592 100.888 32.112 99.096 31.6C96.952 30.992 95.16 30.32 93.72 29.584C92.28 28.816 91.208 27.856 90.504 26.704C89.8 25.552 89.448 24.112 89.448 22.384C89.448 20.048 89.992 18.096 91.08 16.528C92.2 14.928 93.704 13.728 95.592 12.928C97.48 12.096 99.576 11.68 101.88 11.68C103.48 11.68 104.984 11.856 106.392 12.208C107.832 12.56 109.176 13.024 110.424 13.6C111.672 14.176 112.792 14.8 113.784 15.472L110.856 20.848ZM139.334 20.848C139.11 20.624 138.694 20.32 138.086 19.936C137.51 19.552 136.79 19.184 135.926 18.832C135.094 18.48 134.182 18.176 133.19 17.92C132.198 17.632 131.19 17.488 130.166 17.488C128.374 17.488 127.014 17.824 126.086 18.496C125.19 19.168 124.742 20.112 124.742 21.328C124.742 22.256 125.03 22.992 125.606 23.536C126.182 24.08 127.046 24.544 128.198 24.928C129.35 25.312 130.79 25.728 132.518 26.176C134.758 26.72 136.694 27.392 138.326 28.192C139.99 28.96 141.254 29.984 142.118 31.264C143.014 32.512 143.462 34.176 143.462 36.256C143.462 38.08 143.126 39.648 142.454 40.96C141.782 42.24 140.854 43.28 139.67 44.08C138.486 44.88 137.142 45.472 135.638 45.856C134.134 46.208 132.534 46.384 130.838 46.384C129.142 46.384 127.446 46.208 125.75 45.856C124.054 45.504 122.422 45.008 120.854 44.368C119.286 43.696 117.846 42.896 116.534 41.968L119.462 36.256C119.75 36.544 120.262 36.928 120.998 37.408C121.734 37.856 122.63 38.32 123.686 38.8C124.742 39.248 125.894 39.632 127.142 39.952C128.39 40.272 129.654 40.432 130.934 40.432C132.726 40.432 134.086 40.128 135.014 39.52C135.942 38.912 136.406 38.048 136.406 36.928C136.406 35.904 136.038 35.104 135.302 34.528C134.566 33.952 133.542 33.456 132.23 33.04C130.918 32.592 129.366 32.112 127.574 31.6C125.43 30.992 123.638 30.32 122.198 29.584C120.758 28.816 119.686 27.856 118.982 26.704C118.278 25.552 117.926 24.112 117.926 22.384C117.926 20.048 118.47 18.096 119.558 16.528C120.678 14.928 122.182 13.728 124.07 12.928C125.958 12.096 128.054 11.68 130.358 11.68C131.958 11.68 133.462 11.856 134.87 12.208C136.31 12.56 137.654 13.024 138.902 13.6C140.15 14.176 141.27 14.8 142.262 15.472L139.334 20.848ZM176.163 11.92V46H169.587V31.456H154.131V46H147.507V11.92H154.131V25.696H169.587V11.92H176.163Z" fill="#137AB5"/>
</svg>
