<svg width="24" height="24" viewBox="0 0 24 24" fill="none" xmlns="http://www.w3.org/2000/svg">
<g clip-path="url(#clip0_203_963)">
<path d="M4.28572 15.1422H1.164M22.836 15.1422H19.7143M4.28572 8.85765H1.164M22.836 8.85765H19.7143M8.85772 4.28565V1.16394M8.85772 22.8359V19.7142M15.1423 4.28565V1.16394M15.1423 22.8359V19.7142M18 4.28565H6C5.54534 4.28565 5.10931 4.46627 4.78782 4.78776C4.46633 5.10925 4.28572 5.54528 4.28572 5.99994V17.9999C4.28572 18.4546 4.46633 18.8906 4.78782 19.2121C5.10931 19.5336 5.54534 19.7142 6 19.7142H18C18.4547 19.7142 18.8907 19.5336 19.2122 19.2121C19.5337 18.8906 19.7143 18.4546 19.7143 17.9999V5.99994C19.7143 5.54528 19.5337 5.10925 19.2122 4.78776C18.8907 4.46627 18.4547 4.28565 18 4.28565Z" stroke="currentcolor" stroke-width="1.71429" stroke-linecap="round" stroke-linejoin="round"/>
<path d="M8.00057 12.4285C7.51885 12.3463 7.51885 11.6537 8.00057 11.5697C8.85408 11.42 9.64386 11.02 10.2696 10.4205C10.8953 9.82106 11.3287 9.04915 11.5149 8.20282L11.5457 8.06911C11.6486 7.59254 12.3291 7.58911 12.4371 8.06568L12.4714 8.21997C12.6637 9.06346 13.1011 9.8313 13.7285 10.427C14.3559 11.0227 15.1454 11.4196 15.9977 11.568C16.4829 11.652 16.4829 12.348 15.9977 12.432C15.1456 12.5802 14.3563 12.9769 13.7289 13.5722C13.1015 14.1676 12.664 14.9351 12.4714 15.7783L12.4371 15.9325C12.3291 16.4091 11.6486 16.4057 11.5457 15.9291L11.5166 15.7971C11.3306 14.9502 10.8971 14.1778 10.271 13.578C9.64493 12.9781 8.85462 12.578 8.00057 12.4285Z" stroke="currentcolor" stroke-width="1.71429" stroke-linecap="round" stroke-linejoin="round"/>
</g>
<defs>
<clipPath id="clip0_203_963">
<rect width="24" height="24" fill="white"/>
</clipPath>
</defs>
</svg>
