<svg width="36" height="36" viewBox="0 0 36 36" fill="none" xmlns="http://www.w3.org/2000/svg">
<g id="icon-park-outline:check-one">
<g id="Group">
<path id="Vector" d="M18 33C19.9702 33.0024 21.9214 32.6155 23.7416 31.8616C25.5618 31.1076 27.2151 30.0014 28.6065 28.6065C30.0014 27.2151 31.1076 25.5618 31.8616 23.7416C32.6156 21.9214 33.0024 19.9702 33 18C33.0024 16.0298 32.6156 14.0786 31.8616 12.2584C31.1076 10.4382 30.0014 8.78488 28.6065 7.3935C27.2151 5.99862 25.5618 4.89241 23.7416 4.13843C21.9214 3.38445 19.9702 2.99757 18 3C16.0298 2.99757 14.0786 3.38445 12.2584 4.13843C10.4382 4.89241 8.78489 5.99862 7.39351 7.3935C5.99863 8.78488 4.89243 10.4382 4.13845 12.2584C3.38447 14.0786 2.99758 16.0298 3.00001 18C2.99758 19.9702 3.38447 21.9214 4.13845 23.7416C4.89243 25.5618 5.99863 27.2151 7.39351 28.6065C8.78489 30.0014 10.4382 31.1076 12.2584 31.8616C14.0786 32.6155 16.0298 33.0024 18 33Z" stroke="currentcolor" stroke-width="2" stroke-linejoin="round"/>
<path id="Vector_2" d="M12 18L16.5 22.5L25.5 13.5" stroke="currentcolor" stroke-width="2" stroke-linecap="round" stroke-linejoin="round"/>
</g>
</g>
</svg>
