<svg width="37" height="37" viewBox="0 0 37 37" fill="none" xmlns="http://www.w3.org/2000/svg">
<g id="gg:close-o">
<g id="Group">
<path id="Vector" d="M25.1908 14.3714C25.3389 14.2333 25.4583 14.0675 25.5423 13.8832C25.6263 13.699 25.6731 13.5 25.6802 13.2976C25.6873 13.0953 25.6545 12.8935 25.5836 12.7039C25.5127 12.5142 25.4051 12.3404 25.2671 12.1923C25.129 12.0442 24.9631 11.9247 24.7789 11.8407C24.5946 11.7568 24.3957 11.7099 24.1933 11.7028C23.9909 11.6957 23.7892 11.7286 23.5995 11.7994C23.4099 11.8703 23.236 11.9779 23.0879 12.116L18.577 16.3216L14.3713 11.8092C14.0899 11.5209 13.7069 11.3543 13.3042 11.3449C12.9015 11.3355 12.5111 11.4841 12.2166 11.7589C11.922 12.0337 11.7467 12.4129 11.7282 12.8153C11.7097 13.2176 11.8494 13.6113 12.1174 13.912L16.3231 18.4229L11.8106 22.6286C11.6573 22.7653 11.5328 22.9312 11.4445 23.1166C11.3562 23.3021 11.3059 23.5033 11.2964 23.7085C11.287 23.9137 11.3186 24.1187 11.3895 24.3115C11.4604 24.5042 11.5691 24.6809 11.7092 24.8311C11.8493 24.9813 12.0181 25.102 12.2055 25.186C12.3929 25.2701 12.5952 25.3159 12.8005 25.3207C13.0059 25.3254 13.2101 25.2892 13.4012 25.2139C13.5923 25.1387 13.7665 25.026 13.9135 24.8825L18.4244 20.6784L22.63 25.1893C22.7658 25.3455 22.9317 25.4727 23.1177 25.5634C23.3037 25.6541 23.5061 25.7064 23.7127 25.7172C23.9194 25.728 24.1261 25.6971 24.3206 25.6264C24.5151 25.5556 24.6933 25.4464 24.8446 25.3053C24.996 25.1642 25.1174 24.994 25.2016 24.805C25.2858 24.616 25.3311 24.4119 25.3348 24.205C25.3385 23.9981 25.3004 23.7925 25.223 23.6006C25.1455 23.4087 25.0302 23.2344 24.884 23.088L20.6798 18.5771L25.1908 14.3714Z" fill="currentcolor"/>
<path id="Vector_2" fill-rule="evenodd" clip-rule="evenodd" d="M1.54163 18.5C1.54163 9.13438 9.13434 1.54167 18.5 1.54167C27.8656 1.54167 35.4583 9.13438 35.4583 18.5C35.4583 27.8656 27.8656 35.4583 18.5 35.4583C9.13434 35.4583 1.54163 27.8656 1.54163 18.5ZM18.5 32.375C16.6779 32.375 14.8736 32.0161 13.1902 31.3188C11.5068 30.6215 9.97727 29.5995 8.68885 28.3111C7.40044 27.0227 6.37842 25.4931 5.68113 23.8097C4.98385 22.1263 4.62496 20.3221 4.62496 18.5C4.62496 16.6779 4.98385 14.8737 5.68113 13.1903C6.37842 11.5069 7.40044 9.97731 8.68885 8.68889C9.97727 7.40048 11.5068 6.37846 13.1902 5.68117C14.8736 4.98389 16.6779 4.625 18.5 4.625C22.1798 4.625 25.709 6.08683 28.3111 8.68889C30.9131 11.291 32.375 14.8201 32.375 18.5C32.375 22.1799 30.9131 25.709 28.3111 28.3111C25.709 30.9132 22.1798 32.375 18.5 32.375Z" fill="currentcolor"/>
</g>
</g>
</svg>
