<svg width="36" height="36" viewBox="0 0 36 36" fill="none" xmlns="http://www.w3.org/2000/svg">
<g id="iconamoon:cloud-error">
<g id="Group">
<path id="Vector" d="M3 21.75C3 22.6364 3.17459 23.5142 3.51381 24.3331C3.85303 25.1521 4.35023 25.8962 4.97703 26.523C6.2429 27.7888 7.95979 28.5 9.75 28.5H27.75C29.0789 28.5024 30.3593 28.0007 31.3329 27.0961C32.3065 26.1916 32.9008 24.9515 32.996 23.6259C33.0911 22.3004 32.6801 20.9881 31.8457 19.9537C31.0113 18.9194 29.8157 18.24 28.5 18.0525C28.5146 15.5006 27.5995 13.0308 25.9255 11.1046C24.2516 9.17848 21.9335 7.92787 19.4045 7.58657C16.8755 7.24526 14.3088 7.83664 12.1842 9.25016C10.0595 10.6637 8.52233 12.8026 7.86 15.267C6.45743 15.6761 5.22545 16.5292 4.3491 17.6982C3.47275 18.8672 2.99935 20.289 3 21.75Z" stroke="currentcolor" stroke-width="3" stroke-linejoin="round"/>
<path id="Vector_2" d="M18 23H18.015V23.015H18V23Z" stroke="currentcolor" stroke-width="3" stroke-linejoin="round"/>
<path id="Vector_3" d="M18 18V13.5" stroke="currentcolor" stroke-width="3" stroke-linecap="round" stroke-linejoin="round"/>
</g>
</g>
</svg>
