<svg width="24" height="24" viewBox="0 0 24 24" fill="none" xmlns="http://www.w3.org/2000/svg">
<path d="M19 2H5C4.73478 2 4.48043 2.10536 4.29289 2.29289C4.10536 2.48043 4 2.73478 4 3V21C4 21.2652 4.10536 21.5196 4.29289 21.7071C4.48043 21.8946 4.73478 22 5 22H19C19.2652 22 19.5196 21.8946 19.7071 21.7071C19.8946 21.5196 20 21.2652 20 21V3C20 2.73478 19.8946 2.48043 19.7071 2.29289C19.5196 2.10536 19.2652 2 19 2Z" stroke="currentcolor" stroke-width="1.5" stroke-linecap="round" stroke-linejoin="round"/>
<path d="M15 11.5L13.2675 9.7675M13.2675 9.7675C13.5045 9.53644 13.6932 9.26062 13.8227 8.95606C13.9523 8.65149 14.02 8.32423 14.0221 7.99326C14.0242 7.6623 13.9605 7.33422 13.8348 7.02805C13.7091 6.72188 13.5238 6.44372 13.2898 6.20971C13.0557 5.97569 12.7776 5.79048 12.4714 5.66481C12.1652 5.53915 11.8371 5.47553 11.5061 5.47765C11.1752 5.47977 10.8479 5.54759 10.5434 5.67717C10.2388 5.80675 9.96303 5.99551 9.732 6.2325C9.26662 6.70211 9.0062 7.33695 9.00774 7.99809C9.00928 8.65923 9.27265 9.29285 9.74022 9.76028C10.2078 10.2277 10.8415 10.4909 11.5026 10.4923C12.1638 10.4936 12.798 10.233 13.2675 9.7675ZM8.5 15H15.5M8.5 18H12" stroke="currentcolor" stroke-width="1.5" stroke-linecap="round" stroke-linejoin="round"/>
</svg>
