<svg width="36" height="36" viewBox="0 0 36 36" fill="none" xmlns="http://www.w3.org/2000/svg">
<g id="icons8:info">
<path id="Vector" d="M18 3.375C9.936 3.375 3.375 9.936 3.375 18C3.375 26.064 9.936 32.625 18 32.625C26.064 32.625 32.625 26.064 32.625 18C32.625 9.936 26.064 3.375 18 3.375ZM18 5.625C24.8479 5.625 30.375 11.1521 30.375 18C30.375 24.8479 24.8479 30.375 18 30.375C11.1521 30.375 5.625 24.8479 5.625 18C5.625 11.1521 11.1521 5.625 18 5.625ZM16.875 11.25V13.5H19.125V11.25H16.875ZM16.875 15.75V24.75H19.125V15.75H16.875Z" fill="currentcolor"/>
</g>
</svg>
