<svg width="37" height="37" viewBox="0 0 37 37" fill="none" xmlns="http://www.w3.org/2000/svg">
<g id="si:notifications-line">
<path id="Vector" d="M18.5 6.16666C16.0467 6.16666 13.6939 7.14121 11.9592 8.87592C10.2245 10.6106 9.24996 12.9634 9.24996 15.4167V27.75M18.5 6.16666C20.9532 6.16666 23.306 7.14121 25.0407 8.87592C26.7754 10.6106 27.75 12.9634 27.75 15.4167V27.75M18.5 6.16666C18.9088 6.16666 19.301 6.00424 19.5901 5.71512C19.8792 5.426 20.0416 5.03387 20.0416 4.62499C20.0416 4.21612 19.8792 3.82399 19.5901 3.53487C19.301 3.24575 18.9088 3.08333 18.5 3.08333C18.0911 3.08333 17.699 3.24575 17.4098 3.53487C17.1207 3.82399 16.9583 4.21612 16.9583 4.62499C16.9583 5.03387 17.1207 5.426 17.4098 5.71512C17.699 6.00424 18.0911 6.16666 18.5 6.16666ZM30.8333 27.75H6.16663M21.5833 30.8333C21.5833 31.6511 21.2584 32.4353 20.6802 33.0136C20.102 33.5918 19.3177 33.9167 18.5 33.9167C17.6822 33.9167 16.898 33.5918 16.3197 33.0136C15.7415 32.4353 15.4166 31.6511 15.4166 30.8333" stroke="currentcolor" stroke-width="3" stroke-linecap="round" stroke-linejoin="round"/>
</g>
</svg>
