<svg width="24" height="25" viewBox="0 0 24 25" fill="none" xmlns="http://www.w3.org/2000/svg">
<path fill-rule="evenodd" clip-rule="evenodd" d="M12 8.75C11.0054 8.75 10.0516 9.14509 9.34835 9.84835C8.64509 10.5516 8.25 11.5054 8.25 12.5C8.25 13.4946 8.64509 14.4484 9.34835 15.1517C10.0516 15.8549 11.0054 16.25 12 16.25C12.9946 16.25 13.9484 15.8549 14.6517 15.1517C15.3549 14.4484 15.75 13.4946 15.75 12.5C15.75 11.5054 15.3549 10.5516 14.6517 9.84835C13.9484 9.14509 12.9946 8.75 12 8.75ZM9.75 12.5C9.75 11.9033 9.98705 11.331 10.409 10.909C10.831 10.4871 11.4033 10.25 12 10.25C12.5967 10.25 13.169 10.4871 13.591 10.909C14.0129 11.331 14.25 11.9033 14.25 12.5C14.25 13.0967 14.0129 13.669 13.591 14.091C13.169 14.5129 12.5967 14.75 12 14.75C11.4033 14.75 10.831 14.5129 10.409 14.091C9.98705 13.669 9.75 13.0967 9.75 12.5Z" fill="currentcolor"/>
<path fill-rule="evenodd" clip-rule="evenodd" d="M11.975 1.75C11.53 1.75 11.159 1.75 10.855 1.77C10.5442 1.78252 10.2377 1.84673 9.948 1.96C9.61425 2.09809 9.31098 2.30057 9.05549 2.55589C8.80001 2.8112 8.59732 3.11434 8.459 3.448C8.314 3.798 8.275 4.168 8.259 4.57C8.25722 4.71698 8.21822 4.86112 8.14565 4.98895C8.07308 5.11678 7.9693 5.22414 7.844 5.301C7.71483 5.37132 7.56993 5.40775 7.42286 5.40687C7.27579 5.406 7.13133 5.36785 7.003 5.296C6.647 5.108 6.307 4.957 5.931 4.907C5.57295 4.8599 5.20912 4.88379 4.8603 4.9773C4.51148 5.07081 4.18449 5.23212 3.898 5.452C3.6554 5.64648 3.44688 5.88001 3.281 6.143C3.111 6.397 2.925 6.718 2.703 7.103L2.678 7.147C2.455 7.532 2.27 7.853 2.136 8.127C1.996 8.413 1.886 8.695 1.846 9.007C1.7506 9.72999 1.94628 10.4613 2.39 11.04C2.621 11.341 2.922 11.56 3.262 11.774C3.38864 11.8491 3.49415 11.9551 3.56865 12.082C3.64316 12.209 3.68422 12.3528 3.688 12.5C3.68422 12.6472 3.64316 12.791 3.56865 12.918C3.49415 13.0449 3.38864 13.1509 3.262 13.226C2.922 13.44 2.622 13.659 2.39 13.96C2.17012 14.2465 2.00882 14.5735 1.91531 14.9223C1.8218 15.2711 1.79791 15.6349 1.845 15.993C1.886 16.305 1.995 16.587 2.135 16.873C2.27 17.147 2.455 17.468 2.678 17.853L2.703 17.897C2.925 18.282 3.111 18.603 3.281 18.857C3.458 19.12 3.648 19.357 3.898 19.547C4.18441 19.7671 4.51137 19.9285 4.86019 20.0222C5.20902 20.1159 5.57288 20.14 5.931 20.093C6.307 20.043 6.647 19.893 7.003 19.704C7.13121 19.6323 7.27548 19.5943 7.42236 19.5934C7.56924 19.5925 7.71395 19.6289 7.843 19.699C7.96932 19.7749 8.07401 19.882 8.14703 20.01C8.22005 20.138 8.25895 20.2826 8.26 20.43C8.275 20.832 8.314 21.202 8.46 21.552C8.59809 21.8857 8.80058 22.189 9.05589 22.4445C9.31121 22.7 9.61435 22.9027 9.948 23.041C10.238 23.161 10.538 23.208 10.855 23.229C11.159 23.25 11.53 23.25 11.975 23.25H12.025C12.47 23.25 12.841 23.25 13.145 23.23C13.463 23.208 13.762 23.161 14.052 23.04C14.3858 22.9019 14.689 22.6994 14.9445 22.4441C15.2 22.1888 15.4027 21.8857 15.541 21.552C15.686 21.202 15.725 20.832 15.741 20.43C15.7426 20.2828 15.7815 20.1385 15.8541 20.0105C15.9267 19.8825 16.0306 19.775 16.156 19.698C16.2853 19.6278 16.4302 19.5916 16.5773 19.5926C16.7244 19.5937 16.8688 19.632 16.997 19.704C17.353 19.892 17.693 20.043 18.069 20.092C18.792 20.1874 19.5233 19.9917 20.102 19.548C20.352 19.356 20.542 19.12 20.719 18.857C20.889 18.603 21.075 18.282 21.297 17.897L21.322 17.853C21.545 17.468 21.73 17.147 21.864 16.873C22.004 16.587 22.114 16.304 22.154 15.993C22.2494 15.27 22.0537 14.5387 21.61 13.96C21.379 13.659 21.078 13.44 20.738 13.226C20.6114 13.1509 20.5059 13.0449 20.4314 12.918C20.3569 12.791 20.3158 12.6472 20.312 12.5C20.312 12.222 20.464 11.946 20.738 11.774C21.078 11.56 21.378 11.341 21.61 11.04C21.8299 10.7535 21.9912 10.4265 22.0847 10.0777C22.1782 9.72888 22.2021 9.36506 22.155 9.007C22.1079 8.6996 22.0099 8.40219 21.865 8.127C21.6942 7.79478 21.5131 7.46795 21.322 7.147L21.297 7.103C21.1143 6.77708 20.9216 6.45692 20.719 6.143C20.553 5.88036 20.3445 5.64718 20.102 5.453C19.8156 5.23294 19.4886 5.07146 19.1398 4.97778C18.791 4.88409 18.4271 4.86004 18.069 4.907C17.693 4.957 17.353 5.107 16.997 5.296C16.8688 5.36767 16.7245 5.40572 16.5777 5.4066C16.4308 5.40747 16.2861 5.37114 16.157 5.301C16.0313 5.22438 15.9272 5.11712 15.8542 4.98928C15.7813 4.86143 15.742 4.71717 15.74 4.57C15.725 4.168 15.686 3.798 15.54 3.448C15.4019 3.11425 15.1994 2.81097 14.9441 2.55549C14.6888 2.3 14.3857 2.09731 14.052 1.959C13.762 1.839 13.462 1.792 13.145 1.771C12.841 1.75 12.47 1.75 12.025 1.75H11.975ZM10.522 3.345C10.599 3.313 10.716 3.284 10.957 3.267C11.204 3.25 11.524 3.25 12 3.25C12.476 3.25 12.796 3.25 13.043 3.267C13.284 3.284 13.401 3.313 13.478 3.345C13.785 3.472 14.028 3.715 14.155 4.022C14.195 4.118 14.228 4.269 14.241 4.626C14.271 5.418 14.68 6.181 15.406 6.6C16.132 7.019 16.997 6.992 17.698 6.622C18.014 6.455 18.161 6.408 18.265 6.395C18.5936 6.35158 18.9259 6.44043 19.189 6.642C19.255 6.693 19.339 6.78 19.474 6.98C19.613 7.186 19.773 7.463 20.011 7.875C20.249 8.287 20.408 8.565 20.517 8.787C20.624 9.004 20.657 9.12 20.667 9.203C20.7104 9.53157 20.6216 9.86392 20.42 10.127C20.356 10.21 20.242 10.314 19.94 10.504C19.268 10.926 18.812 11.662 18.812 12.5C18.812 13.338 19.268 14.074 19.94 14.496C20.242 14.686 20.356 14.79 20.42 14.873C20.622 15.136 20.71 15.468 20.667 15.797C20.657 15.88 20.623 15.997 20.517 16.213C20.408 16.436 20.249 16.713 20.011 17.125C19.773 17.537 19.612 17.814 19.474 18.02C19.339 18.22 19.255 18.307 19.189 18.358C18.9259 18.5596 18.5936 18.6484 18.265 18.605C18.161 18.592 18.015 18.545 17.698 18.378C16.998 18.008 16.132 17.98 15.406 18.399C14.68 18.818 14.271 19.582 14.241 20.374C14.228 20.731 14.195 20.882 14.155 20.978C14.0922 21.1298 14.0001 21.2677 13.8839 21.3839C13.7677 21.5001 13.6298 21.5922 13.478 21.655C13.401 21.687 13.284 21.716 13.043 21.733C12.796 21.75 12.476 21.75 12 21.75C11.524 21.75 11.204 21.75 10.957 21.733C10.716 21.716 10.599 21.687 10.522 21.655C10.3702 21.5922 10.2323 21.5001 10.1161 21.3839C9.99995 21.2677 9.90783 21.1298 9.84501 20.978C9.80501 20.882 9.772 20.731 9.759 20.374C9.729 19.582 9.32 18.819 8.594 18.4C7.868 17.981 7.003 18.008 6.302 18.378C5.986 18.545 5.839 18.592 5.735 18.605C5.40644 18.6484 5.07408 18.5596 4.811 18.358C4.745 18.307 4.661 18.22 4.526 18.02C4.33789 17.7272 4.1588 17.4288 3.989 17.125C3.751 16.713 3.592 16.435 3.483 16.213C3.376 15.996 3.343 15.88 3.333 15.797C3.28959 15.4684 3.37843 15.1361 3.58 14.873C3.644 14.79 3.758 14.686 4.06 14.496C4.732 14.074 5.188 13.338 5.188 12.5C5.188 11.662 4.732 10.926 4.06 10.504C3.758 10.314 3.644 10.21 3.58 10.127C3.37843 9.86392 3.28959 9.53157 3.333 9.203C3.343 9.12 3.377 9.003 3.483 8.787C3.592 8.564 3.751 8.287 3.989 7.875C4.227 7.463 4.388 7.186 4.526 6.98C4.661 6.78 4.745 6.693 4.811 6.642C5.07408 6.44043 5.40644 6.35158 5.735 6.395C5.839 6.408 5.985 6.455 6.302 6.622C7.002 6.992 7.868 7.02 8.594 6.6C9.32 6.181 9.729 5.418 9.759 4.626C9.772 4.269 9.80501 4.118 9.84501 4.022C9.972 3.715 10.215 3.472 10.522 3.345Z" fill="currentcolor"/>
</svg>
